<svg width="16" height="17" viewBox="0 0 16 17" fill="none" xmlns="http://www.w3.org/2000/svg">
<g clip-path="url(#clip0_2249_231)">
<path d="M7 9.4668H6.33333C6.14933 9.4668 6 9.61613 6 9.80013C6 9.98413 6.14933 10.1335 6.33333 10.1335H7C7.184 10.1335 7.33333 9.98413 7.33333 9.80013C7.33333 9.61613 7.184 9.4668 7 9.4668Z" fill="#9C9BA3"/>
<path d="M9.6665 9.4668H8.99984C8.81584 9.4668 8.6665 9.61613 8.6665 9.80013C8.6665 9.98413 8.81584 10.1335 8.99984 10.1335H9.6665C9.8505 10.1335 9.99984 9.98413 9.99984 9.80013C9.99984 9.61613 9.8505 9.4668 9.6665 9.4668Z" fill="#9C9BA3"/>
<path d="M12.3335 9.4668H11.6668C11.4828 9.4668 11.3335 9.61613 11.3335 9.80013C11.3335 9.98413 11.4828 10.1335 11.6668 10.1335H12.3335C12.5175 10.1335 12.6668 9.98413 12.6668 9.80013C12.6668 9.61613 12.5175 9.4668 12.3335 9.4668Z" fill="#9C9BA3"/>
<path d="M7 12.8H6.33333C6.14933 12.8 6 12.9494 6 13.1334C6 13.3174 6.14933 13.4667 6.33333 13.4667H7C7.184 13.4667 7.33333 13.3174 7.33333 13.1334C7.33333 12.9494 7.184 12.8 7 12.8Z" fill="#9C9BA3"/>
<path d="M4.3335 9.4668H3.66683C3.48283 9.4668 3.3335 9.61613 3.3335 9.80013C3.3335 9.98413 3.48283 10.1335 3.66683 10.1335H4.3335C4.5175 10.1335 4.66683 9.98413 4.66683 9.80013C4.66683 9.61613 4.5175 9.4668 4.3335 9.4668Z" fill="#9C9BA3"/>
<path d="M4.3335 12.8H3.66683C3.48283 12.8 3.3335 12.9494 3.3335 13.1334C3.3335 13.3174 3.48283 13.4667 3.66683 13.4667H4.3335C4.5175 13.4667 4.66683 13.3174 4.66683 13.1334C4.66683 12.9494 4.5175 12.8 4.3335 12.8Z" fill="#9C9BA3"/>
<path d="M9.6665 12.8H8.99984C8.81584 12.8 8.6665 12.9494 8.6665 13.1334C8.6665 13.3174 8.81584 13.4667 8.99984 13.4667H9.6665C9.8505 13.4667 9.99984 13.3174 9.99984 13.1334C9.99984 12.9494 9.8505 12.8 9.6665 12.8Z" fill="#9C9BA3"/>
<path d="M12.3335 12.8H11.6668C11.4828 12.8 11.3335 12.9494 11.3335 13.1334C11.3335 13.3174 11.4828 13.4667 11.6668 13.4667H12.3335C12.5175 13.4667 12.6668 13.3174 12.6668 13.1334C12.6668 12.9494 12.5175 12.8 12.3335 12.8Z" fill="#9C9BA3"/>
<path d="M13 2.13338H12V1.13338C12 0.949382 11.8507 0.800049 11.6667 0.800049C11.4827 0.800049 11.3333 0.949382 11.3333 1.13338V2.13338H4.66667V1.13338C4.66667 0.949382 4.51733 0.800049 4.33333 0.800049C4.14933 0.800049 4 0.949382 4 1.13338V2.13338H3C1.346 2.13338 0 3.47938 0 5.13338V13.8C0 15.454 1.346 16.8 3 16.8H13C14.654 16.8 16 15.454 16 13.8V5.13338C16 3.47938 14.654 2.13338 13 2.13338ZM3 2.80005H13C14.2867 2.80005 15.3333 3.84672 15.3333 5.13338V6.13338H0.666667V5.13338C0.666667 3.84672 1.71333 2.80005 3 2.80005ZM13 16.1334H3C1.71333 16.1334 0.666667 15.0867 0.666667 13.8V6.80005H15.3333V13.8C15.3333 15.0867 14.2867 16.1334 13 16.1334Z" fill="#9C9BA3"/>
</g>
<defs>
<clipPath id="clip0_2249_231">
<rect width="16" height="16" fill="white" transform="translate(0 0.800049)"/>
</clipPath>
</defs>
</svg>
