<svg width="12" height="12" viewBox="0 0 12 12" fill="none" xmlns="http://www.w3.org/2000/svg">
<path d="M11.0001 0.999848C10.8438 0.843622 10.6319 0.755859 10.4109 0.755859C10.19 0.755859 9.97803 0.843622 9.82176 0.999848L6.00009 4.82152L2.17843 0.999848C2.02215 0.843622 1.81023 0.755859 1.58926 0.755859C1.36829 0.755859 1.15637 0.843622 1.00009 0.999848C0.843866 1.15612 0.756104 1.36804 0.756104 1.58901C0.756104 1.80998 0.843866 2.02191 1.00009 2.17818L4.82176 5.99985L1.00009 9.82152C0.843866 9.97779 0.756104 10.1897 0.756104 10.4107C0.756104 10.6317 0.843866 10.8436 1.00009 10.9998C1.15637 11.1561 1.36829 11.2438 1.58926 11.2438C1.81023 11.2438 2.02215 11.1561 2.17843 10.9998L6.00009 7.17818L9.82176 10.9998C9.97803 11.1561 10.19 11.2438 10.4109 11.2438C10.6319 11.2438 10.8438 11.1561 11.0001 10.9998C11.1563 10.8436 11.2441 10.6317 11.2441 10.4107C11.2441 10.1897 11.1563 9.97779 11.0001 9.82152L7.17843 5.99985L11.0001 2.17818C11.1563 2.02191 11.2441 1.80998 11.2441 1.58901C11.2441 1.36804 11.1563 1.15612 11.0001 0.999848Z" fill="white"/>
</svg>
